<svg enable-background="new 0 0 512 512" viewBox="0 0 512 512" xmlns="http://www.w3.org/2000/svg"><path d="m0 77v358c0 9.4 7.6 17 17 17h478c9.4 0 17-7.6 17-17v-358c0-9.4-7.6-17-17-17h-478c-9.4 0-17 7.6-17 17zm149.8 179.2-119.4 119.4c-.1.1-.4 0-.4-.2v-238.8c0-.2.2-.3.4-.2l119.4 119.4c.1.1.1.3 0 .4zm-106.6 149 127.8-127.8c.1-.1.2-.1.3 0l30.9 30.9c14.8 14.8 35 23.3 55.9 22.7 19.2-.5 37.3-8.3 50.9-21.9l31.7-31.7c.1-.1.2-.1.3 0l127.8 127.8c4.8 4.8 8.3 10.4 10.5 16.5.1.1-.1.3-.2.3h-446.2c-.1 0-.3-.2-.2-.3 2.2-6.1 5.7-11.8 10.5-16.5zm319-149.4 119.4-119.4c.1-.1.4 0 .4.2v238.8c0 .2-.2.3-.4.2l-119.4-119.4c-.1-.1-.1-.3 0-.4zm106.6-149-181 181c-8.5 8.5-19.8 13.2-31.8 13.2s-23.3-4.7-31.8-13.2l-181-181c-4.8-4.8-8.3-10.4-10.5-16.5-.1-.1.1-.3.2-.3h446.3c.1 0 .3.2.2.3-2.3 6.1-5.8 11.8-10.6 16.5z"/></svg>